<?xml version="1.0" encoding="UTF-8" standalone="no"?><!DOCTYPE svg PUBLIC "-//W3C//DTD SVG 1.1//EN" "http://www.w3.org/Graphics/SVG/1.1/DTD/svg11.dtd"><svg width="100%" height="100%" viewBox="0 0 8384 6200" version="1.1" xmlns="http://www.w3.org/2000/svg" xmlns:xlink="http://www.w3.org/1999/xlink" xml:space="preserve" xmlns:serif="http://www.serif.com/" style="fill-rule:evenodd;clip-rule:evenodd;stroke-linejoin:round;stroke-miterlimit:2;"><g><path d="M4290.583,3888.096l-28.667,0c0,0 -231.35,-169.05 -404.354,-265.933c-173.004,-96.883 -615.9,-392.971 -715.258,-476.012c-99.354,-83.046 -425.592,-385.558 -542.742,-557.575c-117.15,-172.017 -237.267,-404.833 -259.513,-600.579c-22.242,-195.742 -6.917,-448.825 99.85,-694c106.771,-245.175 229.358,-399.396 444.875,-585.254c215.517,-185.859 423.121,-326.242 650.5,-440.917c227.379,-114.679 478.487,-217.496 668.308,-264.95l33.583,0c0,0 -431.012,138.408 -869.954,421.146c-110.725,73.158 -486.392,320.308 -688.071,577.346c-88.971,120.613 -328.217,399.396 -316.35,692.025c1.975,124.567 45.475,365.784 203.65,656.434c158.179,290.65 310.425,397.421 399.396,482.442c88.975,85.021 375.671,346.012 589.212,496.279c213.538,150.271 314.375,223.425 423.121,296.583c108.75,73.154 260.996,191.787 312.413,262.967Z" style="fill:#2cb77f;fill-rule:nonzero;"/><path d="M4330.125,3882.412c0,0 213.542,-30.4 59.292,-227.625c-123.083,-136.429 -419.646,-400.387 -550.141,-517.537c-130.496,-117.15 -541.263,-505.671 -661.379,-631.717c-120.117,-126.05 -330.687,-363.313 -455.254,-582.784c-124.563,-219.471 -287.683,-599.096 -59.317,-1061.767c77.113,-145.325 274.338,-421.146 729.592,-643.579c77.113,-38.554 339.588,-152.737 683.621,-203.159c0,0 -419.662,90.459 -714.763,234.3c-86.008,45.971 -256.542,139.392 -473.046,336.617c-32.625,29.659 -216.504,260.992 -231.333,505.675c-14.829,244.679 54.867,440.425 166.083,656.929c111.221,216.504 309.929,459.7 513.087,680.654c203.158,220.954 656.929,637.65 828.946,794.837c172.029,157.192 326.737,326.738 368.237,435.484c41.542,108.746 9.917,198.217 -203.625,223.671Z" style="fill:#2cb77f;fill-rule:nonzero;"/><path d="M4437.375,3876.233c0,0 377.667,-12.354 431.042,-276.313c16.291,-103.804 -31.125,-296.583 -198.709,-498.258c-167.583,-201.675 -501.25,-551.642 -642.104,-680.658c-140.879,-129.013 -440.425,-458.217 -560.542,-615.404c-120.116,-157.191 -388.521,-523.466 -456.737,-852.675c-29.659,-130.496 -18.784,-309.433 64.262,-463.654c83.042,-154.221 255.304,-235.534 278.292,-245.917c-47.454,43.004 -195.746,188.329 -206.866,369.983c-11.121,181.658 58.575,391.492 178.692,605.029c120.117,213.538 321.296,445.367 517.042,678.679c195.742,233.308 660.379,678.183 804.713,854.154c144.333,175.971 308.458,399.396 367.792,646.55c13.833,69.2 37.542,259.012 -172.042,383.579c-87,43.496 -180.917,85.021 -404.833,94.904Z" style="fill:#2cb77f;fill-rule:nonzero;"/><path d="M4130.417,3876.233c0,0 334.167,47.454 806.709,-120.609c85,-29.658 294.583,-112.7 419.167,-344.037c124.542,-231.333 -11.875,-531.867 -102.834,-695.975c-90.916,-164.108 -308.416,-496.283 -630.708,-832.408c-322.292,-336.125 -664.35,-672.254 -844.275,-925.333c-179.929,-253.083 -231.333,-375.671 -255.062,-549.667c-23.725,-173.991 136.429,-319.813 325.5,-345.763c0,-0 -269.15,151.996 -147.55,402.609c121.6,250.608 274.338,434.491 435.975,597.612c161.621,163.117 471.579,477.496 594.663,606.508c123.083,129.013 320.292,352.934 473.041,564.988c152.75,212.058 295.084,490.846 318.833,621.342c23.709,130.496 54.833,339.583 -96.417,564.987c-151.25,225.4 -409.292,317.342 -516.042,355.9c-106.75,38.554 -226.375,81.063 -536.833,111.708c0,0 -76.083,5.933 -242.188,0l-1.979,-11.862Z" style="fill:#2cb77f;fill-rule:nonzero;"/><path d="M4145.125,3882.412l-3.333,-4.858c0,0 -164.609,-17.383 -413.738,-80.408c-128.271,-31.142 -369.242,-117.15 -573.883,-272.854c-204.641,-155.708 -333.658,-338.104 -348.487,-630.238c-14.829,-292.133 189.812,-618.375 317.346,-815.6c127.529,-197.225 311.408,-422.629 544.721,-644.079c233.312,-221.446 482.442,-478.484 676.208,-672.25c193.75,-193.767 308.458,-367.759 336.125,-478.484c27.667,-110.725 -3.958,-268.9 -332.167,-280.767l0,6.179c0,0 330.667,8.158 194.25,258.771c-77.125,124.563 -164.667,237.262 -354.458,409.279c-189.762,172.016 -473.229,444.875 -666.633,622.821c-193.404,177.95 -605.654,670.275 -733.183,952.029c-127.533,281.754 -115.667,435.975 -97.875,652.479c17.796,216.504 222.438,433.012 375.179,570.921c77.109,60.8 195.25,163.617 426.583,252.587c231.333,88.975 366.771,110.725 452.779,127.533c86.008,16.804 97.55,20.721 196.142,32.912c9.992,0.329 4.425,-5.975 4.425,-5.975Z" style="fill:#2cb77f;fill-rule:nonzero;"/><path d="M4040.454,3867.338l-83.042,-14.333c0,0 -168.063,-65.746 -338.104,-145.821c-170.042,-80.079 -392.791,-185.858 -623.966,-365.292c-231.179,-179.429 -388.367,-367.758 -486.238,-563.504c-97.875,-195.746 -258.029,-585.75 0,-1113.667c50.417,-106.766 210.571,-358.862 450.804,-590.196c240.229,-231.333 397.421,-349.966 542.746,-459.704c145.325,-109.734 358.862,-255.058 551.642,-400.384c192.787,-145.325 232.829,-145.817 228.367,-211.563c20.75,0.992 45.963,0 45.963,0c0,0 51.917,54.375 -66.708,156.696c-118.646,102.321 -287.454,224.517 -471.579,373.692c-184.129,149.175 -286.2,222.438 -490.842,407.8c-204.642,185.363 -289.963,288.904 -489.859,513.087c-199.892,224.179 -300.533,504.188 -353.921,719.704c-53.383,215.517 -3.954,486.396 83.046,614.913c86.996,128.521 183.879,282.742 421.146,468.6c237.267,185.858 365.783,268.9 527.917,349.967c162.129,81.067 451.296,223.425 552.629,260.004Z" style="fill:#2cb77f;fill-rule:nonzero;"/><path d="M3533.054,3737.792l-125.308,-51.863c0,0 -172.017,-103.312 -229.354,-343.542c-57.342,-240.233 133.971,-645.725 354.662,-924.346c220.688,-278.625 474.775,-584.267 757.529,-854.158c282.75,-269.888 534.833,-575.367 656.417,-821.529c121.625,-246.167 104.792,-403.35 39.542,-508.142c-65.25,-104.796 -317.333,-213.542 -523.958,-213.542l-25.792,-10.163c0,0 237.375,-8.621 507.25,136.705c50.417,26.692 323.292,197.721 231.333,526.925c-91.958,329.208 -240.25,530.883 -412.25,705.867c-172,174.983 -359.375,389.217 -610.958,652.479c-251.567,263.266 -421.146,471.567 -504.188,587.233c-83.046,115.667 -232.025,334.808 -275.821,498.258c-43.8,163.45 -134.946,394.375 160.896,619.817Z" style="fill:#2cb77f;fill-rule:nonzero;"/><path d="M4009.092,3861.925l-81.337,-15.35c0,0 -240.233,-83.042 -234.3,-286.696c5.929,-203.65 209.583,-448.825 326.242,-579.321c116.654,-130.496 446.846,-454.758 591.179,-601.075c144.333,-146.312 391.5,-395.442 607,-694c215.542,-298.558 307.458,-516.054 346.041,-732.558c38.542,-216.504 -60.833,-446.354 -185.375,-562.021c-124.583,-115.667 -445.625,-309.187 -673.083,-340.167l-24.5,-6.617c0,0 191.916,20.546 426.208,138.433c234.292,117.892 616.875,367.021 605.042,826.721c-8.917,166.088 -71.209,504.192 -388.542,886.779c-317.333,382.592 -497.125,569.438 -620.75,688.071c-123.666,118.633 -393.625,376.658 -515.208,498.258c-121.55,121.6 -260.942,281.754 -320.258,412.25c-59.317,130.496 -60.75,289.708 141.642,367.292Z" style="fill:#2cb77f;fill-rule:nonzero;"/><path d="M2663.325,4539.583l-365.783,0l0,-210.583l636.663,0l0,730.083c0,54.875 9.392,323.292 -352.437,358.875c-44.488,2.958 -216.504,-7.417 -382.592,-180.917l127.529,-173.5c0,0 105.287,114.208 220.954,114.208c115.667,0 117.15,-87.5 118.633,-132c1.483,-44.5 -2.967,-506.167 -2.967,-506.167Z" style="fill-rule:nonzero;"/><path d="M4062.583,5216.208c-104.9,110.958 -258,180.833 -428.458,180.833c-316.667,0 -573.375,-241.167 -573.375,-538.667c0,-297.458 256.708,-538.579 573.375,-538.579c170.229,0 323.104,69.662 428.079,180.329l-156.059,179.333c-56.392,-83.833 -151.208,-138.875 -258.683,-138.875c-172.808,0 -312.871,142.292 -312.871,317.792c0,175.542 140.062,317.875 312.871,317.875c105.958,0 199.717,-53.5 256.258,-135.417l158.863,175.375Z" style="fill-rule:nonzero;"/><path d="M5030.042,4435.542l-102.333,207.625c0,0 -141.833,-94.667 -301,-116.417c-74.167,-8.917 -145.333,0 -161.167,67.208c-15.792,67.25 50.417,109.75 132.5,134.458c82.041,24.708 208.583,54.375 290.625,100.833c82.083,46.458 151.25,133.458 146.333,252.083c-4.959,118.625 -59.333,254.083 -262,307.458c-202.667,53.375 -396.417,-11.833 -463.625,-39.542c-67.25,-27.667 -159.183,-93.917 -190.821,-116.667c31.638,-54.375 109.737,-196.708 109.737,-196.708c0,0 169.042,141.375 367.75,154.208c198.708,12.875 181.916,-131.458 113.708,-172c-68.208,-40.542 -185.875,-63.917 -283.75,-95.708c-97.875,-31.833 -259,-113.875 -247.125,-312.583c0,-54.875 47.458,-298.083 431.5,-304c81.583,-2.958 308.958,42 419.667,129.75Z" style="fill-rule:nonzero;"/><path d="M6015.375,4761c45.875,-45.792 74.042,-100 74.042,-169.875c0,-139.833 -89.542,-252.75 -338.708,-262.375l-562,0l0,1059.75l551.666,0c258,-10.542 381.125,-123.875 381.125,-276.667c0,-76.333 -29.417,-145.583 -76.834,-195.542c-45.208,-47.833 -105.458,-80.542 -173.75,-83.458c56.083,-7.625 106.333,-33.708 144.458,-71.833Zm-171.708,319.167c0,66.458 -74.917,108.917 -137.875,108.917l-254.375,0l0,-240.125l254.375,0c62.958,0 137.875,53.583 137.875,120.083l0,11.125Zm-393.917,-551.917l245.625,0c60.875,0 110.208,49.333 110.208,110.208l0,10.125c0,60.875 -49.333,110.208 -110.208,110.208l-245.625,0l0,-230.542Z" style="fill-rule:nonzero;"/><path d="M495,5823.292l73.754,0l-125.742,371.417l-73.754,0l-84.879,-281.75l-86.483,281.75l-72.683,0l-125.213,-371.417l76.4,0l87.538,294.458l87.012,-294.458l70.038,0l87.533,295.542l86.479,-295.542Z" style="fill-rule:nonzero;"/><path d="M733.75,5823.292l272.175,0l0,62.083l-201.088,0l0,91.792l180.392,0l0,62.083l-180.392,0l0,93.375l207.454,0l0,62.083l-278.542,0l0,-371.417Z" style="fill-rule:nonzero;"/><path d="M1288.7,6055.167l130.521,0l-64.729,-156l-65.792,156Zm188.875,139.542l-32.896,-78.542l-181.442,0l-32.896,78.542l-73.75,0l162.883,-371.417l73.75,0l160.75,371.417l-76.4,0Z" style="fill-rule:nonzero;"/><path d="M1717.388,5823.292l71.088,0l0,307.208l160.229,0l0,64.208l-231.317,0l0,-371.417Z" style="fill-rule:nonzero;"/><path d="M2081.337,5823.292l302.942,0l0,63.167l-115.658,0l0,308.25l-71.625,0l0,-308.25l-115.658,0l0,-63.167Z" style="fill-rule:nonzero;"/><path d="M2552.992,5823.292l71.096,0l0,158.625l185.167,0l0,-158.625l71.083,0l0,371.417l-71.083,0l0,-150.708l-185.167,0l0,150.708l-71.096,0l0,-371.417Z" style="fill-rule:nonzero;"/><path d="M3338.742,5823.292l81.167,0l123.087,239.292l122.025,-239.292l81.183,0l0,371.417l-65.262,0l0,-266.333l-115.658,228.125l-45.633,0l-116.188,-228.125l0,266.333l-64.721,0l0,-371.417Z" style="fill-rule:nonzero;"/><path d="M4041.708,6055.167l130.5,0l-64.708,-156l-65.792,156Zm188.875,139.542l-32.875,-78.542l-181.463,0l-32.892,78.542l-73.754,0l162.883,-371.417l73.75,0l160.767,371.417l-76.417,0Z" style="fill-rule:nonzero;"/><path d="M4729.292,5823.292l69,0l0,371.417l-67.416,0l-190.959,-255.75l0,255.75l-69.5,0l0,-371.417l67.375,0l191.5,256.25l0,-256.25Z" style="fill-rule:nonzero;"/><path d="M5093.792,6055.167l130.5,0l-64.708,-156l-65.792,156Zm188.875,139.542l-32.875,-78.542l-181.458,0l-32.917,78.542l-73.75,0l162.875,-371.417l73.75,0l160.792,371.417l-76.417,0Z" style="fill-rule:nonzero;"/><path d="M5764.916,6010.042l62.083,0l0,141.125c-19.458,14.542 -42.416,26.292 -68.958,35.292c-26.542,9.042 -52.542,13.542 -78,13.542c-36.417,0 -69.583,-8.5 -99.458,-25.458c-29.916,-17 -53.5,-40.083 -70.833,-69.25c-17.333,-29.167 -26,-61.458 -26,-96.833c0,-35.375 8.833,-67.458 26.542,-96.292c17.667,-28.833 41.792,-51.625 72.417,-68.417c30.583,-16.833 64.458,-25.208 101.583,-25.208c26.542,0 52.708,4.75 78.542,14.292c25.792,9.583 48.083,22.667 66.833,39.292l-40.334,52.5c-14.125,-13.417 -30.5,-23.875 -49.041,-31.292c-18.584,-7.417 -37.25,-11.125 -56,-11.125c-23.333,0 -44.833,5.542 -64.458,16.708c-19.625,11.125 -35.125,26.417 -46.417,45.875c-11.333,19.458 -17,40.708 -17,63.667c0,23.333 5.75,44.75 17.25,64.208c11.5,19.458 26.958,34.833 46.416,46.167c19.459,11.333 41.042,16.958 64.75,16.958c12.709,0 26.083,-2.042 40.042,-6.083c13.958,-4.083 27.334,-9.833 40.042,-17.25l0,-102.417Z" style="fill-rule:nonzero;"/><path d="M6027.542,5823.292l272.208,0l0,62.083l-201.083,0l0,91.792l180.375,0l0,62.083l-180.375,0l0,93.375l207.416,0l0,62.083l-278.542,0l0,-371.417Z" style="fill-rule:nonzero;"/><path d="M6496.542,5823.292l81.208,0l123.083,239.292l122.042,-239.292l81.167,0l0,371.417l-65.291,0l0,-266.333l-115.625,228.125l-45.625,0l-116.208,-228.125l0,266.333l-64.75,0l0,-371.417Z" style="fill-rule:nonzero;"/><path d="M7113.583,5823.292l272.166,0l0,62.083l-201.042,0l0,91.792l180.375,0l0,62.083l-180.375,0l0,93.375l207.417,0l0,62.083l-278.542,0l0,-371.417Z" style="fill-rule:nonzero;"/><path d="M7841.5,5823.292l68.959,0l0,371.417l-67.375,0l-191,-255.75l0,255.75l-69.5,0l0,-371.417l67.375,0l191.542,256.25l0,-256.25Z" style="fill-rule:nonzero;"/><path d="M8078.667,5823.292l302.958,0l0,63.167l-115.667,0l0,308.25l-71.625,0l0,-308.25l-115.667,0l0,-63.167Z" style="fill-rule:nonzero;"/></g></svg>