<?xml version="1.0" encoding="UTF-8" standalone="no"?>
<!DOCTYPE svg PUBLIC "-//W3C//DTD SVG 1.1//EN" "http://www.w3.org/Graphics/SVG/1.1/DTD/svg11.dtd">
<svg width="100%" height="100%" viewBox="0 0 9000 9000" version="1.1" xmlns="http://www.w3.org/2000/svg" xmlns:xlink="http://www.w3.org/1999/xlink" xml:space="preserve" xmlns:serif="http://www.serif.com/" style="fill-rule:evenodd;clip-rule:evenodd;stroke-linejoin:round;stroke-miterlimit:2;">
    <g id="Page-1" serif:id="Page 1" transform="matrix(4.16667,0,0,4.16667,0,0)">
        <rect x="0" y="0" width="2160" height="2160" style="fill:none;"/>
        <g id="Layer-1" serif:id="Layer 1">
            <g transform="matrix(1,0,0,1,1103.94,336.346)">
                <path d="M0,932.453L-6.881,932.453C-6.881,932.453 -62.401,891.881 -103.922,868.629C-145.444,845.377 -251.739,774.316 -275.584,754.385C-299.429,734.455 -377.727,661.852 -405.843,620.568C-433.959,579.283 -462.786,523.407 -468.125,476.429C-473.463,429.45 -469.786,368.71 -444.161,309.868C-418.536,251.026 -389.115,214.013 -337.392,169.407C-285.668,124.801 -235.842,91.109 -181.271,63.587C-126.7,36.064 -66.434,11.388 -20.879,0L-12.812,0C-12.812,0 -116.26,33.217 -221.606,101.075C-248.18,118.632 -338.341,177.949 -386.743,239.638C-408.097,268.584 -465.515,335.493 -462.668,405.724C-462.193,435.619 -451.754,493.512 -413.791,563.268C-375.829,633.024 -339.29,658.649 -317.936,679.053C-296.582,699.458 -227.775,762.096 -176.526,798.161C-125.276,834.225 -101.075,851.783 -74.976,869.34C-48.877,886.898 -12.338,915.37 0,932.453" style="fill:white;fill-rule:nonzero;"/>
            </g>
            <g transform="matrix(1,0,0,1,1113.44,339.074)">
                <path d="M0,928.361C0,928.361 51.249,921.065 14.236,873.731C-15.304,840.988 -86.483,777.638 -117.802,749.522C-149.121,721.406 -247.705,628.161 -276.533,597.909C-305.361,567.658 -355.898,510.714 -385.794,458.041C-415.689,405.368 -454.838,314.258 -400.03,203.218C-381.523,168.34 -334.189,102.143 -224.928,48.758C-206.421,39.505 -143.427,12.101 -60.859,0C-60.859,0 -161.578,21.71 -232.402,56.232C-253.044,67.265 -293.972,89.687 -345.933,137.021C-353.763,144.139 -397.894,199.659 -401.453,258.382C-405.012,317.106 -388.285,364.084 -361.593,416.045C-334.9,468.007 -287.21,526.374 -238.452,579.403C-189.694,632.432 -80.789,732.439 -39.505,770.164C1.779,807.889 38.911,848.58 48.877,874.68C58.842,900.779 51.249,922.251 0,928.361" style="fill:white;fill-rule:nonzero;"/>
            </g>
            <g transform="matrix(1,0,0,1,1139.18,394.061)">
                <path d="M0,871.891C0,871.891 90.635,868.925 103.448,805.575C107.363,780.662 95.974,734.396 55.757,685.993C15.541,637.591 -64.536,553.599 -98.347,522.636C-132.157,491.673 -204.048,412.664 -232.876,374.938C-261.704,337.213 -326.121,249.306 -342.493,170.297C-349.611,138.978 -347.001,96.033 -327.071,59.019C-307.14,22.006 -265.797,2.491 -260.28,0C-271.669,10.321 -307.259,45.199 -309.928,88.796C-312.597,132.394 -295.87,182.753 -267.042,234.003C-238.215,285.252 -189.931,340.891 -142.953,396.885C-95.974,452.88 15.541,559.65 50.182,601.883C84.822,644.116 124.208,697.738 138.444,757.054C141.766,773.663 147.461,819.218 97.16,849.113C76.281,859.553 53.741,869.518 0,871.891" style="fill:white;fill-rule:nonzero;"/>
            </g>
            <g transform="matrix(1,0,0,1,1065.51,362.03)">
                <path d="M0,903.922C0,903.922 80.196,915.311 193.609,874.976C214.013,867.858 264.314,847.927 294.209,792.407C324.105,736.887 291.362,664.758 269.534,625.372C247.705,585.986 195.507,506.265 118.158,425.595C40.81,344.924 -41.284,264.254 -84.467,203.514C-127.649,142.774 -139.987,113.353 -145.681,71.594C-151.375,29.836 -112.938,-5.161 -67.561,-11.389C-67.561,-11.389 -132.157,25.09 -102.973,85.237C-73.79,145.384 -37.132,189.516 1.661,228.664C40.454,267.813 114.836,343.264 144.376,374.227C173.916,405.19 221.25,458.931 257.908,509.824C294.565,560.717 328.731,627.626 334.426,658.945C340.12,690.264 347.594,740.446 311.292,794.543C274.991,848.639 213.064,870.705 187.44,879.958C161.815,889.211 133.106,899.414 58.604,906.769C58.604,906.769 40.335,908.193 0.474,906.769L0,903.922Z" style="fill:white;fill-rule:nonzero;"/>
            </g>
            <g transform="matrix(1,0,0,1,1069.04,337.859)">
                <path d="M0,929.576L-0.8,928.41C-0.8,928.41 -40.306,924.237 -100.096,909.112C-130.882,901.638 -188.715,880.996 -237.829,843.627C-286.943,806.257 -317.906,762.482 -321.465,692.37C-325.024,622.258 -275.91,543.96 -245.303,496.626C-214.696,449.291 -170.564,395.195 -114.57,342.047C-58.575,288.9 1.216,227.211 47.72,180.707C94.224,134.203 121.747,92.444 128.39,65.87C135.034,39.296 127.441,1.334 48.669,-1.513L48.669,-0.03C48.669,-0.03 128.034,1.927 95.292,62.074C76.785,91.969 55.768,119.018 10.223,160.302C-35.323,201.586 -103.355,267.071 -149.772,309.779C-196.189,352.487 -295.129,470.645 -325.736,538.266C-356.343,605.886 -353.496,642.9 -349.225,694.861C-344.954,746.822 -295.84,798.783 -259.183,831.882C-240.676,846.474 -212.323,871.149 -156.803,892.503C-101.283,913.857 -68.777,919.077 -48.135,923.11C-27.493,927.144 -24.724,928.084 -1.062,931.01C1.336,931.089 0,929.576 0,929.576" style="fill:white;fill-rule:nonzero;"/>
            </g>
            <g transform="matrix(1,0,0,1,1043.92,336.345)">
                <path d="M0,927.471L-19.93,924.031C-19.93,924.031 -60.266,908.252 -101.075,889.034C-141.885,869.815 -195.345,844.428 -250.828,801.364C-306.31,758.301 -344.035,713.102 -367.524,666.123C-391.014,619.145 -429.451,525.543 -367.524,398.843C-355.424,373.219 -316.987,312.716 -259.331,257.196C-201.676,201.676 -163.951,173.204 -129.072,146.867C-94.194,120.531 -42.945,85.653 3.322,50.775C49.589,15.897 59.198,15.778 58.13,0C63.113,0.237 69.163,0 69.163,0C69.163,0 81.619,13.05 53.147,37.607C24.676,62.164 -15.838,91.491 -60.028,127.293C-104.219,163.095 -128.717,180.678 -177.831,225.165C-226.945,269.652 -247.421,294.502 -295.396,348.306C-343.37,402.109 -367.524,469.311 -380.337,521.035C-393.149,572.759 -381.286,637.77 -360.406,668.614C-339.527,699.459 -316.275,736.472 -259.331,781.078C-202.388,825.684 -171.543,845.614 -132.631,865.07C-93.72,884.526 -24.32,918.692 0,927.471" style="fill:white;fill-rule:nonzero;"/>
            </g>
            <g transform="matrix(1,0,0,1,922.14,336.108)">
                <path d="M0,896.617L-30.073,884.17C-30.073,884.17 -71.358,859.376 -85.119,801.72C-98.88,744.065 -52.965,646.746 0,579.877C52.965,513.008 113.947,439.653 181.805,374.88C249.663,310.106 310.165,236.791 339.349,177.712C368.533,118.633 364.499,80.908 348.84,55.758C333.18,30.607 272.677,4.508 223.089,4.508L216.896,2.069C216.896,2.069 273.864,0 338.637,34.878C350.738,41.284 416.223,82.331 394.157,161.341C372.092,240.35 336.502,288.752 295.218,330.748C253.933,372.744 208.963,424.16 148.587,487.343C88.212,550.527 47.512,600.519 27.582,628.279C7.652,656.039 -28.103,708.633 -38.615,747.861C-49.127,787.089 -71.002,842.511 0,896.617" style="fill:white;fill-rule:nonzero;"/>
            </g>
            <g transform="matrix(1,0,0,1,1036.39,346.244)">
                <path d="M0,916.273L-19.521,912.59C-19.521,912.59 -77.177,892.659 -75.753,843.783C-74.33,794.906 -25.453,736.064 2.544,704.745C30.542,673.426 109.788,595.603 144.429,560.488C179.07,525.372 238.386,465.581 290.11,393.927C341.834,322.273 363.9,270.075 373.153,218.114C382.406,166.152 358.561,110.988 328.666,83.228C298.77,55.468 221.718,9.023 167.127,1.588L161.248,0C161.248,0 207.304,4.93 263.536,33.224C319.768,61.518 411.59,121.309 408.743,231.638C406.607,271.498 391.66,352.643 315.497,444.465C239.335,536.287 196.192,581.13 166.514,609.602C136.837,638.074 72.044,700 42.87,729.183C13.696,758.367 -19.759,796.804 -33.995,828.123C-48.231,859.442 -48.574,897.653 0,916.273" style="fill:white;fill-rule:nonzero;"/>
            </g>
            <g transform="matrix(1,0,0,1,713.406,1586.14)">
                <path d="M0,-160.984L-87.788,-160.984L-87.788,-211.522L65.011,-211.522L65.011,-36.301C65.011,-23.133 67.265,41.285 -19.574,49.826C-30.251,50.538 -71.536,48.047 -111.396,6.407L-80.789,-35.233C-80.789,-35.233 -55.52,-7.829 -27.76,-7.829C0,-7.829 0.356,-28.827 0.712,-39.504C1.068,-50.181 0,-160.984 0,-160.984" style="fill:white;fill-rule:nonzero;"/>
            </g>
            <g transform="matrix(1,0,0,1,1049.23,1415.81)">
                <path d="M0,171.735C-25.176,198.366 -61.92,215.137 -102.83,215.137C-178.829,215.137 -240.44,157.255 -240.44,85.858C-240.44,14.461 -178.829,-43.402 -102.83,-43.402C-61.975,-43.402 -25.285,-26.685 -0.091,-0.127L-37.545,42.911C-51.079,22.792 -73.835,9.586 -99.629,9.586C-141.103,9.586 -174.718,43.729 -174.718,85.858C-174.718,127.987 -141.103,162.149 -99.629,162.149C-74.198,162.149 -51.697,149.306 -38.127,129.642L0,171.735Z" style="fill:white;fill-rule:nonzero;"/>
            </g>
            <g transform="matrix(1,0,0,1,1281.42,1609.93)">
                <path d="M0,-209.743L-24.557,-159.917C-24.557,-159.917 -58.605,-182.635 -96.804,-187.855C-114.599,-189.991 -131.682,-187.855 -135.479,-171.721C-139.275,-155.587 -123.378,-145.385 -103.685,-139.453C-83.992,-133.522 -53.622,-126.404 -33.929,-115.252C-14.236,-104.101 2.373,-83.221 1.186,-54.749C0,-26.277 -13.05,6.228 -61.689,19.04C-110.328,31.853 -156.833,16.193 -172.967,9.55C-189.101,2.906 -211.166,-12.991 -218.759,-18.448C-211.166,-31.497 -192.422,-65.664 -192.422,-65.664C-192.422,-65.664 -151.85,-31.735 -104.16,-28.65C-56.469,-25.566 -60.503,-60.206 -76.874,-69.934C-93.245,-79.662 -121.48,-85.271 -144.969,-92.906C-168.459,-100.542 -207.133,-120.235 -204.286,-167.925C-204.286,-181.093 -192.897,-239.461 -100.719,-240.884C-81.145,-241.596 -26.574,-230.8 0,-209.743" style="fill:white;fill-rule:nonzero;"/>
            </g>
            <g transform="matrix(1,0,0,1,1517.9,1525.15)">
                <path d="M0,-46.858C11.005,-57.845 17.762,-70.857 17.762,-87.629C17.762,-121.19 -3.729,-148.287 -63.521,-150.598L-198.402,-150.598L-198.402,103.74L-66.007,103.74C-4.087,101.212 25.466,74.017 25.466,37.345C25.466,19.027 18.409,2.401 7.021,-9.586C-3.82,-21.064 -18.281,-28.922 -34.671,-29.614C-21.21,-31.451 -9.15,-37.708 0,-46.858M-41.219,29.742C-41.219,45.695 -59.192,55.881 -74.308,55.881L-135.354,55.881L-135.354,-1.746L-74.308,-1.746C-59.192,-1.746 -41.219,11.115 -41.219,27.068L-41.219,29.742ZM-135.755,-102.721L-76.8,-102.721C-62.193,-102.721 -50.351,-90.879 -50.351,-76.272L-50.351,-73.834C-50.351,-59.227 -62.193,-47.386 -76.8,-47.386L-135.755,-47.386L-135.755,-102.721Z" style="fill:white;fill-rule:nonzero;"/>
            </g>
            <g transform="matrix(1,0,0,1,193.008,1822.38)">
                <path d="M0,-89.133L17.7,-89.133L-12.477,0L-30.178,0L-50.549,-67.614L-71.305,0L-88.749,0L-118.8,-89.133L-100.464,-89.133L-79.455,-18.464L-58.572,-89.133L-41.763,-89.133L-20.755,-18.208L0,-89.133Z" style="fill:white;fill-rule:nonzero;"/>
            </g>
            <g transform="matrix(1,0,0,1,250.307,1822.38)">
                <path d="M0,-89.133L65.322,-89.133L65.322,-74.234L17.061,-74.234L17.061,-52.207L60.355,-52.207L60.355,-37.308L17.061,-37.308L17.061,-14.899L66.85,-14.899L66.85,0L0,0L0,-89.133Z" style="fill:white;fill-rule:nonzero;"/>
            </g>
            <g transform="matrix(1,0,0,1,383.495,1766.74)">
                <path d="M0,22.155L31.325,22.155L15.79,-15.281L0,22.155ZM45.33,55.644L37.436,36.798L-6.111,36.798L-14.005,55.644L-31.705,55.644L7.386,-33.489L25.086,-33.489L63.666,55.644L45.33,55.644Z" style="fill:white;fill-rule:nonzero;"/>
            </g>
            <g transform="matrix(1,0,0,1,486.381,1822.38)">
                <path d="M0,-89.133L17.061,-89.133L17.061,-15.407L55.516,-15.407L55.516,0L0,0L0,-89.133Z" style="fill:white;fill-rule:nonzero;"/>
            </g>
            <g transform="matrix(1,0,0,1,573.728,1822.38)">
                <path d="M0,-89.133L72.706,-89.133L72.706,-73.98L44.948,-73.98L44.948,0L27.758,0L27.758,-73.98L0,-73.98L0,-89.133Z" style="fill:white;fill-rule:nonzero;"/>
            </g>
            <g transform="matrix(1,0,0,1,686.926,1822.38)">
                <path d="M0,-89.133L17.062,-89.133L17.062,-51.061L61.503,-51.061L61.503,-89.133L78.563,-89.133L78.563,0L61.503,0L61.503,-36.162L17.062,-36.162L17.062,0L0,0L0,-89.133Z" style="fill:white;fill-rule:nonzero;"/>
            </g>
            <g transform="matrix(1,0,0,1,875.505,1822.38)">
                <path d="M0,-89.133L19.48,-89.133L49.022,-31.705L78.307,-89.133L97.791,-89.133L97.791,0L82.128,0L82.128,-63.921L54.37,-9.168L43.419,-9.168L15.533,-63.921L15.533,0L0,0L0,-89.133Z" style="fill:white;fill-rule:nonzero;"/>
            </g>
            <g transform="matrix(1,0,0,1,1044.22,1766.74)">
                <path d="M0,22.155L31.325,22.155L15.79,-15.281L0,22.155ZM45.33,55.644L37.436,36.798L-6.111,36.798L-14.005,55.644L-31.705,55.644L7.386,-33.489L25.086,-33.489L63.666,55.644L45.33,55.644Z" style="fill:white;fill-rule:nonzero;"/>
            </g>
            <g transform="matrix(1,0,0,1,1209.24,1822.38)">
                <path d="M0,-89.133L16.552,-89.133L16.552,0L0.38,0L-45.458,-61.375L-45.458,0L-62.139,0L-62.139,-89.133L-45.968,-89.133L0,-27.632L0,-89.133Z" style="fill:white;fill-rule:nonzero;"/>
            </g>
            <g transform="matrix(1,0,0,1,1296.72,1766.74)">
                <path d="M0,22.155L31.323,22.155L15.791,-15.281L0,22.155ZM45.33,55.644L37.436,36.798L-6.113,36.798L-14.007,55.644L-31.705,55.644L7.385,-33.489L25.085,-33.489L63.666,55.644L45.33,55.644Z" style="fill:white;fill-rule:nonzero;"/>
            </g>
            <g transform="matrix(1,0,0,1,1457.79,1777.69)">
                <path d="M0,0.38L14.899,0.38L14.899,34.251C10.229,37.732 4.711,40.553 -1.656,42.719C-8.022,44.884 -14.261,45.966 -20.372,45.966C-29.115,45.966 -37.073,43.928 -44.247,39.853C-51.422,35.778 -57.088,30.24 -61.247,23.237C-65.407,16.234 -67.485,8.487 -67.485,-0.002C-67.485,-8.49 -65.365,-16.192 -61.119,-23.113C-56.875,-30.03 -51.082,-35.505 -43.739,-39.538C-36.397,-43.568 -28.266,-45.586 -19.354,-45.586C-12.987,-45.586 -6.706,-44.44 -0.508,-42.149C5.688,-39.857 11.035,-36.715 15.536,-32.725L5.859,-20.12C2.462,-23.346 -1.464,-25.85 -5.919,-27.632C-10.378,-29.416 -14.854,-30.307 -19.354,-30.307C-24.957,-30.307 -30.114,-28.97 -34.825,-26.296C-39.536,-23.621 -43.25,-19.949 -45.966,-15.281C-48.684,-10.612 -50.041,-5.518 -50.041,-0.002C-50.041,5.601 -48.663,10.738 -45.902,15.407C-43.145,20.075 -39.431,23.768 -34.761,26.484C-30.092,29.202 -24.916,30.559 -19.226,30.559C-16.171,30.559 -12.968,30.071 -9.614,29.094C-6.26,28.118 -3.055,26.738 0,24.957L0,0.38Z" style="fill:white;fill-rule:nonzero;"/>
            </g>
            <g transform="matrix(1,0,0,1,1520.82,1822.38)">
                <path d="M0,-89.133L65.322,-89.133L65.322,-74.234L17.062,-74.234L17.062,-52.207L60.355,-52.207L60.355,-37.308L17.062,-37.308L17.062,-14.899L66.85,-14.899L66.85,0L0,0L0,-89.133Z" style="fill:white;fill-rule:nonzero;"/>
            </g>
            <g transform="matrix(1,0,0,1,1633.38,1822.38)">
                <path d="M0,-89.133L19.484,-89.133L49.025,-31.705L78.311,-89.133L97.791,-89.133L97.791,0L82.13,0L82.13,-63.921L54.372,-9.168L43.422,-9.168L15.536,-63.921L15.536,0L0,0L0,-89.133Z" style="fill:white;fill-rule:nonzero;"/>
            </g>
            <g transform="matrix(1,0,0,1,1781.47,1822.38)">
                <path d="M0,-89.133L65.322,-89.133L65.322,-74.234L17.064,-74.234L17.064,-52.207L60.355,-52.207L60.355,-37.308L17.064,-37.308L17.064,-14.899L66.849,-14.899L66.849,0L0,0L0,-89.133Z" style="fill:white;fill-rule:nonzero;"/>
            </g>
            <g transform="matrix(1,0,0,1,1956.17,1822.38)">
                <path d="M0,-89.133L16.552,-89.133L16.552,0L0.38,0L-45.458,-61.375L-45.458,0L-62.139,0L-62.139,-89.133L-45.966,-89.133L0,-27.632L0,-89.133Z" style="fill:white;fill-rule:nonzero;"/>
            </g>
            <g transform="matrix(1,0,0,1,2013.08,1822.38)">
                <path d="M0,-89.133L72.708,-89.133L72.708,-73.98L44.95,-73.98L44.95,0L27.762,0L27.762,-73.98L0,-73.98L0,-89.133Z" style="fill:white;fill-rule:nonzero;"/>
            </g>
        </g>
    </g>
</svg>
